<svg xmlns="http://www.w3.org/2000/svg" width="46" height="46" viewBox="0 0 48 48">
  <g>
    <path fill="#4285F4" d="M24 9.5c3.54 0 6.7 1.22 9.19 3.23l6.85-6.85C36.18 2.09 30.4 0 24 0 14.82 0 6.73 5.08 2.69 12.44l7.98 6.2C12.13 13.09 17.62 9.5 24 9.5z"/>
    <path fill="#34A853" d="M46.1 24.5c0-1.64-.15-3.22-.43-4.74H24v9.01h12.42c-.54 2.9-2.18 5.36-4.64 7.01l7.19 5.59C43.27 37.92 46.1 31.77 46.1 24.5z"/>
    <path fill="#FBBC05" d="M10.67 28.64A14.5 14.5 0 0 1 9.5 24c0-1.62.28-3.19.77-4.64l-7.98-6.2A23.94 23.94 0 0 0 0 24c0 3.77.9 7.34 2.49 10.5l8.18-5.86z"/>
    <path fill="#EA4335" d="M24 48c6.48 0 11.92-2.15 15.89-5.85l-7.19-5.59c-2.01 1.35-4.59 2.14-8.7 2.14-6.38 0-11.87-3.59-14.33-8.94l-8.18 5.86C6.73 42.92 14.82 48 24 48z"/>
    <path fill="none" d="M0 0h48v48H0z"/>
  </g>
</svg>
